<svg xmlns="http://www.w3.org/2000/svg" width="1360" height="680" viewBox="0 0 1360 680">
  <defs>
    <radialGradient id="vig" cx="50%" cy="45%" r="75%">
      <stop offset="0%" stop-color="#141414"/>
      <stop offset="100%" stop-color="#0a0a0a"/>
    </radialGradient>
    <pattern id="scan" width="4" height="4" patternUnits="userSpaceOnUse">
      <rect width="4" height="1" y="0" fill="#ffffff" opacity="0.03"/>
    </pattern>
  </defs>

  <rect width="1360" height="680" fill="url(#vig)"/>
  <rect width="1360" height="680" fill="url(#scan)"/>

  <!-- court walls -->
  <rect x="72" y="104" width="1216" height="6" fill="#f4f4f4" opacity="0.85"/>
  <rect x="72" y="596" width="1216" height="6" fill="#f4f4f4" opacity="0.85"/>
  <rect x="675" y="116" width="10" height="18" fill="#f4f4f4" opacity="0.55"/><rect x="675" y="150" width="10" height="18" fill="#f4f4f4" opacity="0.55"/><rect x="675" y="184" width="10" height="18" fill="#f4f4f4" opacity="0.55"/><rect x="675" y="218" width="10" height="18" fill="#f4f4f4" opacity="0.55"/><rect x="675" y="252" width="10" height="18" fill="#f4f4f4" opacity="0.55"/><rect x="675" y="286" width="10" height="18" fill="#f4f4f4" opacity="0.55"/><rect x="675" y="320" width="10" height="18" fill="#f4f4f4" opacity="0.55"/><rect x="675" y="354" width="10" height="18" fill="#f4f4f4" opacity="0.55"/><rect x="675" y="388" width="10" height="18" fill="#f4f4f4" opacity="0.55"/><rect x="675" y="422" width="10" height="18" fill="#f4f4f4" opacity="0.55"/><rect x="675" y="456" width="10" height="18" fill="#f4f4f4" opacity="0.55"/><rect x="675" y="490" width="10" height="18" fill="#f4f4f4" opacity="0.55"/><rect x="675" y="524" width="10" height="18" fill="#f4f4f4" opacity="0.55"/><rect x="675" y="558" width="10" height="18" fill="#f4f4f4" opacity="0.55"/>

  <!-- score -->
  <text x="530" y="248" font-family="'SF Mono','Menlo','DejaVu Sans Mono','Consolas',monospace" font-size="132" font-weight="700" fill="#f4f4f4" text-anchor="middle" letter-spacing="4">11</text>
  <text x="830" y="248" font-family="'SF Mono','Menlo','DejaVu Sans Mono','Consolas',monospace" font-size="132" font-weight="700" fill="#f4f4f4" text-anchor="middle" letter-spacing="4">9</text>

  <!-- paddles -->
  <rect x="118" y="360" width="16" height="108" fill="#f4f4f4"/>
  <rect x="1226" y="320" width="16" height="108" fill="#f4f4f4"/>

  <rect x="538" y="439" width="44" height="26" rx="13" fill="none" stroke="#fbbf24" stroke-width="3"/>
        <text x="560" y="459" font-family="'SF Mono','Menlo','DejaVu Sans Mono','Consolas',monospace" font-size="20" font-weight="700" fill="#fbbf24" text-anchor="middle">+</text>
        <rect x="556" y="406" width="8" height="8" fill="#fbbf24" opacity="0.85"/><rect x="590" y="424" width="8" height="8" fill="#fbbf24" opacity="0.85"/><rect x="598" y="454" width="8" height="8" fill="#fbbf24" opacity="0.85"/><rect x="582" y="484" width="8" height="8" fill="#fbbf24" opacity="0.85"/><rect x="548" y="492" width="8" height="8" fill="#fbbf24" opacity="0.85"/><rect x="518" y="474" width="8" height="8" fill="#fbbf24" opacity="0.85"/><rect x="512" y="440" width="8" height="8" fill="#fbbf24" opacity="0.85"/><rect x="532" y="412" width="8" height="8" fill="#fbbf24" opacity="0.85"/>

  <!-- ball -->
  <rect x="825" y="291" width="18" height="18" fill="#fbbf24" opacity="0.21000000000000002"/><rect x="799" y="291" width="18" height="18" fill="#fbbf24" opacity="0.14"/><rect x="773" y="291" width="18" height="18" fill="#fbbf24" opacity="0.07"/><rect x="851" y="291" width="18" height="18" fill="#f4f4f4"/>

  <!-- badge -->
  <text x="72" y="72" font-family="'SF Mono','Menlo','DejaVu Sans Mono','Consolas',monospace" font-size="26" font-weight="700" letter-spacing="8" fill="#f4f4f4">PONG</text>
  <text x="1288" y="72" font-family="'SF Mono','Menlo','DejaVu Sans Mono','Consolas',monospace" font-size="22" letter-spacing="4" fill="#fbbf24" text-anchor="end">&#9670; PART FIVE</text>

  <!-- caption -->
  <text x="680" y="656" font-family="'SF Mono','Menlo','DejaVu Sans Mono','Consolas',monospace" font-size="21" fill="#6a6a6a" text-anchor="middle">the finale &#183; spawned pickups, timed effects, particles &#183; entities with lifetimes</text>
</svg>